# xmcd CD database file
#
# Track frame offsets:
#	150
#	6851
#	22004
#	35944
#	65046
#	78833
#	102091
#	116483
#	139752
#	149628
#	162739
#	181751
#	204626
#	216902
#	233332
#
# Disc length: 3434 seconds
#
# Revision: 0
# Processed by: cddbd v1.5.2PL0 Copyright (c) Steve Scherf et al.
# Submitted via: CDex 1.51
#
DISCID=d80d680f
DTITLE=Iris Dement - Lifeline (2004 - tracks 3-15)
DYEAR=1900
DGENRE=Country
TTITLE0=The Old Rugged Cross (with Kari Bremnes)
TTITLE1=The Shores Of Jordan
TTITLE2=01-I've Got That Old Time Religion In my Heart
TTITLE3=02-Blessed Assurance
TTITLE4=03-Fill my Way With Love
TTITLE5=04-Hide Thou Me
TTITLE6=05-The Old Gospel Ship
TTITLE7=06-Sweet Hour of Prayer
TTITLE8=07-That Glad Reunion Day
TTITLE9=08-Leaning on the Everlasting Arms
TTITLE10=09-He Reached Down
TTITLE11=10-Near the Cross
TTITLE12=11-I Never Shall Forget the Day
TTITLE13=12-I Don't Want to Get Adjusted
TTITLE14=13-God Walks the Dark Hills
EXTD=
EXTT0=
EXTT1=
EXTT2=
EXTT3=
EXTT4=
EXTT5=
EXTT6=
EXTT7=
EXTT8=
EXTT9=
EXTT10=
EXTT11=
EXTT12=
EXTT13=
EXTT14=
PLAYORDER=
